<?xml version="1.0" encoding="utf-8"?>
<!-- Generator: Adobe Illustrator 24.3.0, SVG Export Plug-In . SVG Version: 6.00 Build 0)  -->
<svg version="1.1" xmlns="http://www.w3.org/2000/svg" xmlns:xlink="http://www.w3.org/1999/xlink" x="0px" y="0px"
	 viewBox="0 0 500 500" style="enable-background:new 0 0 500 500;" xml:space="preserve">
<style type="text/css">
	.st0{display:none;}
	.st1{display:inline;fill:url(#SVGID_1_);}
</style>
<g id="Capa_1">
	<g id="Capa_3">
	</g>
	<path d="M250,10C129.62,10,9.25,89.99,6.54,250C9.27,409.99,129.65,490,250,490c120.38,0,240.75-80,243.46-240.01
		C490.73,90,370.35,10,250,10z M48.89,250C51.55,113.47,151.74,52.34,250,52.34c30.81,0,61.81,6.03,89.94,18.49
		c-14.01-3.18-29.02-5.08-45.14-5.35c-103.43,0-103.43,374.57,0.01,374.57c6.05-0.1,11.82-0.6,17.57-1.13
		c-20.25,5.75-41.32,8.74-62.37,8.74C151.75,447.66,51.57,386.53,48.89,250z"/>
</g>
<g id="Capa_2" class="st0">
	<linearGradient id="SVGID_1_" gradientUnits="userSpaceOnUse" x1="-391" y1="161.0226" x2="-270" y2="161.0226">
		<stop  offset="0" style="stop-color:#FFFFFF"/>
		<stop  offset="1" style="stop-color:#000000"/>
	</linearGradient>
	<path class="st1" d="M-321,187c2-20,27-39,51-31c-30-24-81-32-121,1C-350,126-328,151-321,187z"/>
</g>
</svg>
